<svg width="24" height="24" viewBox="0 0 24 24" fill="none" xmlns="http://www.w3.org/2000/svg">
<path fill-rule="evenodd" clip-rule="evenodd" d="M18.7396 10.4388C18.6942 10.1666 18.4366 9.98588 18.161 9.99681C18.1075 9.99893 18.0537 10 17.9998 10C15.9596 10 14.2762 8.47264 14.0306 6.49901C13.9965 6.22498 13.7759 6 13.4998 6H10.4998C10.2236 6 10.003 6.22498 9.96894 6.49901C9.72333 8.47264 8.03991 10 5.99976 10C5.94577 10 5.89203 9.99893 5.83856 9.99681C5.56287 9.98588 5.30532 10.1666 5.25996 10.4388L4.73976 13.56C4.69432 13.8326 4.88018 14.0874 5.14503 14.1664C6.64204 14.6129 7.77128 15.9124 7.96895 17.5011C8.00304 17.7751 8.22362 18 8.49976 18H15.4998C15.7759 18 15.9965 17.7751 16.0306 17.5011C16.2282 15.9124 17.3575 14.6129 18.8545 14.1664C19.1193 14.0874 19.3052 13.8326 19.2598 13.56L18.7396 10.4388Z" fill="#7747FF"/>
<path fill-rule="evenodd" clip-rule="evenodd" d="M6 8C7.10457 8 8 7.10457 8 6C8 4.89543 7.10457 4 6 4C4.89543 4 4 4.89543 4 6C4 7.10457 4.89543 8 6 8ZM18 8C19.1046 8 20 7.10457 20 6C20 4.89543 19.1046 4 18 4C16.8954 4 16 4.89543 16 6C16 7.10457 16.8954 8 18 8ZM22 18C22 19.1046 21.1046 20 20 20C18.8954 20 18 19.1046 18 18C18 16.8954 18.8954 16 20 16C21.1046 16 22 16.8954 22 18ZM4 20C5.10457 20 6 19.1046 6 18C6 16.8954 5.10457 16 4 16C2.89543 16 2 16.8954 2 18C2 19.1046 2.89543 20 4 20Z" fill="#AD91FF"/>
</svg>
