<svg width="24" height="24" viewBox="0 0 24 24" fill="none" xmlns="http://www.w3.org/2000/svg">
<path fill-rule="evenodd" clip-rule="evenodd" d="M15 5C13.8954 5 13 5.89543 13 7V17C13 19.2091 11.2091 21 9 21C6.79086 21 5 19.2091 5 17V11C5 10.4477 5.44772 10 6 10C6.55228 10 7 10.4477 7 11V17C7 18.1046 7.89543 19 9 19C10.1046 19 11 18.1046 11 17V7C11 4.79086 12.7909 3 15 3C17.2091 3 19 4.79086 19 7V12C19 12.5523 18.5523 13 18 13C17.4477 13 17 12.5523 17 12V7C17 5.89543 16.1046 5 15 5Z" fill="#7747FF"/>
<path d="M6.86375 3.4805C6.47787 2.819 5.52207 2.819 5.13619 3.4805L3.37723 6.49587C2.98835 7.16253 3.46922 7.99974 4.24101 7.99974H7.75893C8.53073 7.99974 9.0116 7.16253 8.62271 6.49587L6.86375 3.4805Z" fill="#AD91FF"/>
<path d="M15 17.9998C15 16.3429 16.3431 14.9998 18 14.9998C19.6568 14.9998 21 16.3429 21 17.9998C21 19.6566 19.6568 20.9998 18 20.9998C16.3431 20.9998 15 19.6566 15 17.9998Z" fill="#AD91FF"/>
</svg>
